<!DOCTYPE svg PUBLIC "-//W3C//DTD SVG 1.1//EN" "http://www.w3.org/Graphics/SVG/1.1/DTD/svg11.dtd">
<svg xmlns="http://www.w3.org/2000/svg">
<metadata/>
<defs>
<font id="neuzeitgroextblaregular" horiz-adv-x="886">
<font-face units-per-em="2048" ascent="1366" descent="-682"/>
<missing-glyph horiz-adv-x="512"/>
<glyph unicode="ﬁ" horiz-adv-x="1054" d="M57 809v201h103q0 156 41 237q64 123 245 123q18 0 72 -4v-219q-66 1 -87 -25.5t-19 -111.5h106v-201h-106v-809h-252v809h-103zM682 1257q0 56 41 97t96 41q58 0 98.5 -40.5t40.5 -97.5q0 -59 -40 -99t-99 -40q-57 0 -97 40.5t-40 98.5zM694 0v1010h252v-1010h-252z"/>
<glyph unicode="ﬂ" horiz-adv-x="1081" d="M57 809v201h103q0 156 41 237q64 123 245 123q18 0 72 -4v-219q-66 1 -87 -25.5t-19 -111.5h106v-201h-106v-809h-252v809h-103zM707 0v1366h251v-1366h-251z"/>
<glyph horiz-adv-x="2048"/>
<glyph horiz-adv-x="2048"/>
<glyph unicode="
" horiz-adv-x="2048"/>
<glyph unicode=" " horiz-adv-x="512"/>
<glyph unicode="	" horiz-adv-x="512"/>
<glyph unicode=" " horiz-adv-x="512"/>
<glyph unicode="!" horiz-adv-x="575" d="M158 119q0 55 41 96t96 41q58 0 98.5 -40t40.5 -97q0 -59 -40 -99t-99 -40q-57 0 -97 40.5t-40 98.5zM160 1366h272l-20 -977h-232z"/>
<glyph unicode="&quot;" horiz-adv-x="681" d="M68 760l49 407q6 53 13 78.5t20 42.5q37 43 96 43q41 0 68.5 -25t27.5 -63q0 -45 -33 -104l-198 -379h-43zM381 760l49 407q10 89 35 121q37 43 94 43q41 0 68.5 -25t27.5 -63q0 -42 -32 -104l-199 -379h-43z"/>
<glyph unicode="#" horiz-adv-x="1079" d="M63 332l37 205h115l41 231h-117l37 205h117l53 307h205l-53 -307h184l53 307h219l-55 -307h117l-37 -205h-115l-41 -231h117l-37 -205h-117l-53 -307h-205l54 307h-197l-55 -307h-205l55 307h-117zM420 537h198l41 231h-198z"/>
<glyph unicode="$" d="M55 260l221 68q15 -122 115 -140v342q-186 120 -257 215.5t-71 227.5q0 148 86.5 239.5t241.5 108.5v106h94v-104q132 -9 209 -74.5t105 -191.5l-219 -70q-9 55 -30.5 83.5t-64.5 43.5v-334q97 -65 133 -92q203 -152 203 -360q0 -145 -93.5 -244t-242.5 -111v-123h-94 v123q-299 18 -336 287zM301 999q0 -44 21 -79t69 -72v266q-51 -20 -70.5 -45.5t-19.5 -69.5zM485 186q41 9 64.5 40t23.5 77q0 83 -88 162v-279z"/>
<glyph unicode="%" horiz-adv-x="1214" d="M43 1012q0 334 244 334q241 0 241 -338q0 -340 -241 -340q-124 0 -184 84.5t-60 259.5zM156 -27l751 1383h150l-750 -1383h-151zM219 1008q0 -108 15 -148.5t53 -40.5q37 0 51 40t14 147q0 111 -13.5 150.5t-53.5 39.5q-37 0 -51.5 -40t-14.5 -148zM684 328 q0 334 244 334q243 0 243 -338q0 -172 -60 -256t-183 -84q-124 0 -184 84.5t-60 259.5zM860 324q0 -108 15 -148.5t53 -40.5t52.5 40t14.5 147q0 110 -14.5 150t-52.5 40q-39 0 -53.5 -40t-14.5 -148z"/>
<glyph unicode="&amp;" horiz-adv-x="1101" d="M109 348q0 119 64 213.5t187 155.5q-5 8 -28 45q-50 76 -67 122t-17 107q0 129 86 214t215 85q122 0 205.5 -78.5t83.5 -193.5q0 -92 -46 -167.5t-161 -172.5l174 -289l90 123l152 -160l-140 -141l131 -211h-254l-43 78q-84 -54 -147.5 -76t-130.5 -22q-148 0 -251 107 t-103 261zM346 369q0 -71 44.5 -122.5t107.5 -51.5t135 59l-176 305q-60 -46 -85.5 -89.5t-25.5 -100.5zM453 1006q0 -42 24 -82l51 -80q59 56 82 92t23 74q0 35 -25 61.5t-59 26.5q-40 0 -68 -27t-28 -65z"/>
<glyph unicode="'" horiz-adv-x="681" d="M246 760l49 407q6 53 13 78.5t20 42.5q37 43 96 43q41 0 68.5 -25t27.5 -63q0 -45 -33 -104l-198 -379h-43z"/>
<glyph unicode="(" horiz-adv-x="585" d="M88 547q0 281 67.5 505t198.5 375l170 -174q-84 -111 -110 -204q-31 -97 -50.5 -241t-19.5 -276q0 -281 70 -485q32 -101 110 -207l-170 -174q-130 151 -198 375.5t-68 505.5z"/>
<glyph unicode=")" horiz-adv-x="585" d="M61 -160q78 104 111 207q31 96 50.5 238.5t19.5 275.5q0 284 -70 488q-31 96 -111 204l170 174q131 -151 199 -375t68 -505q0 -569 -267 -881z"/>
<glyph unicode="*" horiz-adv-x="923" d="M150 1085l51 175l188 -84l-14 196h172l-19 -196l193 84l51 -166l-203 -50l142 -145l-150 -100l-102 182l-109 -182l-141 100l133 145z"/>
<glyph unicode="+" d="M41 543v219h293v293h219v-293h293v-219h-293v-293h-219v293h-293z"/>
<glyph unicode="," horiz-adv-x="485" d="M41 -184l127 430h242l-158 -430h-211z"/>
<glyph unicode="-" horiz-adv-x="546" d="M68 389v232h409v-232h-409z"/>
<glyph unicode="." horiz-adv-x="485" d="M104 119q0 55 41 96t97 41q58 0 98.5 -40t40.5 -97q0 -59 -40.5 -99t-98.5 -40q-57 0 -97.5 40.5t-40.5 98.5z"/>
<glyph unicode="/" horiz-adv-x="567" d="M41 -27l272 1420h213l-274 -1420h-211z"/>
<glyph unicode="0" d="M70 662q0 669 374 669q100 0 179 -53t120 -148q76 -171 76 -479q0 -306 -76 -477q-41 -94 -121 -147.5t-178 -53.5q-99 0 -178.5 53t-120.5 148q-40 93 -57.5 206.5t-17.5 281.5zM330 651q0 -176 10.5 -270.5t34.5 -135t69 -40.5t69.5 41t35 135.5t10.5 267.5 q0 177 -10.5 273t-35 137t-69.5 41t-69 -41t-34.5 -136t-10.5 -272z"/>
<glyph unicode="1" d="M182 872v220q85 34 181 100.5t143 124.5h82v-1317h-260v958q-56 -49 -146 -86z"/>
<glyph unicode="2" d="M37 0l377 684q63 116 86.5 180.5t23.5 122.5q0 51 -23.5 81t-64.5 30q-94 0 -94 -152v-49h-254v49q0 107 21 170.5t73 114.5q105 100 262 100q161 0 258 -93.5t97 -250.5q0 -95 -35 -195.5t-115 -232.5l-194 -319h303v-240h-721z"/>
<glyph unicode="3" d="M61 381v43h252v-70q0 -87 22 -124t73 -37q122 0 122 251q0 209 -106 209q-47 0 -98 -51l-117 127l237 336h-335v240h725l-306 -465h21q118 0 181 -96.5t63 -276.5q0 -238 -107 -365q-108 -129 -280 -129q-152 0 -250 95q-54 54 -75.5 122.5t-21.5 190.5z"/>
<glyph unicode="4" d="M59 219v232l398 854h260v-861h106v-225h-106v-219h-260v219h-398zM233 444h224v498z"/>
<glyph unicode="5" d="M59 319l250 58q1 -98 22.5 -139t71.5 -41q59 0 85 62.5t26 203.5q0 207 -121 207q-30 0 -49.5 -16.5t-34.5 -55.5h-203v707h615v-240h-397v-246q41 40 81.5 56t98.5 16q132 0 203 -110.5t71 -313.5q0 -241 -97.5 -367.5t-283.5 -126.5q-100 0 -175.5 38t-110.5 106 q-41 76 -52 202z"/>
<glyph unicode="6" d="M78 414q0 146 40.5 268.5t141.5 280.5l219 342h293l-317 -476q56 21 98 21q118 0 192 -111t74 -290q0 -222 -104 -349t-287 -127q-166 0 -258 116t-92 325zM338 416q0 -104 30 -165t81 -61t80.5 60t29.5 162q0 106 -29 166.5t-81 60.5q-51 0 -81 -60t-30 -163z"/>
<glyph unicode="7" d="M106 1073v232h687l-381 -1305h-275l326 1073h-357z"/>
<glyph unicode="8" d="M63 395q0 138 44.5 215t146.5 115q-81 28 -119.5 92t-38.5 170q0 160 91 252t251 92t251 -92t91 -252q0 -106 -38 -169.5t-119 -92.5q101 -38 145.5 -115t44.5 -215q0 -199 -99 -310.5t-276 -111.5t-276 111.5t-99 310.5zM324 395q0 -101 30 -157t84 -56t84.5 56 t30.5 153q0 102 -30.5 158.5t-84.5 56.5t-84 -56t-30 -155zM344 969q0 -87 22.5 -126.5t71.5 -39.5q94 0 94 162q0 88 -22.5 128t-71.5 40t-71.5 -39.5t-22.5 -124.5z"/>
<glyph unicode="9" d="M68 856q0 222 104 348.5t287 126.5q166 0 258 -115.5t92 -324.5q0 -146 -40.5 -267.5t-141.5 -281.5l-219 -342h-295l319 475q-56 -20 -98 -20q-118 0 -192 111t-74 290zM328 893q0 -106 29 -166.5t81 -60.5q51 0 81 60t30 163q0 104 -30 164.5t-81 60.5t-80.5 -59.5 t-29.5 -161.5z"/>
<glyph unicode=":" horiz-adv-x="485" d="M104 119q0 55 41 96t97 41q58 0 98.5 -40t40.5 -97q0 -59 -40.5 -99t-98.5 -40q-57 0 -97.5 40.5t-40.5 98.5zM104 868q0 56 41 97t97 41q58 0 98.5 -40.5t40.5 -97.5q0 -58 -40.5 -98.5t-98.5 -40.5q-57 0 -97.5 40.5t-40.5 98.5z"/>
<glyph unicode=";" horiz-adv-x="485" d="M41 -184l127 430h242l-158 -430h-211zM141 868q0 56 41.5 97t96.5 41q58 0 98.5 -40.5t40.5 -97.5q0 -58 -40 -98.5t-99 -40.5q-57 0 -97.5 40.5t-40.5 98.5z"/>
<glyph unicode="&lt;" horiz-adv-x="1024" d="M68 567v232l886 456v-274l-596 -299l596 -297v-274z"/>
<glyph unicode="=" d="M41 352v219h805v-219h-805zM41 733v219h805v-219h-805z"/>
<glyph unicode="&gt;" horiz-adv-x="1024" d="M70 111v274l596 297l-596 299v274l886 -456v-232z"/>
<glyph unicode="?" horiz-adv-x="792" d="M41 942v45q0 186 93.5 289.5t260.5 103.5q154 0 241 -91.5t87 -254.5q0 -88 -32 -167t-118 -205q-68 -103 -89 -150.5t-31 -122.5h-242q8 103 44 183.5t148 244.5q62 97 62 215q0 135 -84 135q-57 0 -82 -52.5t-27 -172.5h-231zM197 119q0 55 40.5 96t96.5 41 q58 0 98.5 -40t40.5 -97q0 -59 -40.5 -99t-98.5 -40q-57 0 -97 40.5t-40 98.5z"/>
<glyph unicode="@" horiz-adv-x="1472" d="M68 625q0 216 94.5 392t261.5 276t373 100q264 0 435 -160.5t171 -407.5q0 -146 -56.5 -269t-154 -194t-213.5 -71q-134 0 -158 100q-54 -59 -96.5 -80.5t-103.5 -21.5q-110 0 -173 75t-63 207q0 124 48.5 231t131.5 169.5t180 62.5q55 0 93 -22.5t69 -73.5l29 63h149 l-110 -473l-14 -65q-2 -14 7.5 -24.5t24.5 -10.5q104 0 180 118t76 281q0 97 -29.5 168t-93.5 129q-130 115 -327 115q-123 0 -230 -46.5t-183 -128t-119.5 -195.5t-43.5 -244q0 -227 142 -365.5t374 -138.5q117 0 220 36t223 119l57 -112q-137 -106 -249.5 -148.5 t-258.5 -42.5q-195 0 -346 82t-234 230t-83 340zM555 561q0 -60 24.5 -94.5t67.5 -34.5q66 0 113 47.5t67 134.5l39 164q-21 113 -112 113q-82 0 -140.5 -97.5t-58.5 -232.5z"/>
<glyph unicode="A" horiz-adv-x="985" d="M41 0l309 1372h295l299 -1372h-280l-35 211h-279l-41 -211h-268zM387 430h203l-94 623z"/>
<glyph unicode="B" horiz-adv-x="989" d="M123 0v1366h362q194 0 297 -85t103 -245q0 -248 -242 -301q138 -35 201 -116.5t63 -221.5q0 -195 -118.5 -296t-344.5 -101h-321zM389 211h55q90 0 140.5 53.5t50.5 149.5q0 95 -50.5 147.5t-140.5 52.5h-55v-403zM389 819h55q77 0 125.5 48t48.5 124q0 75 -48.5 122.5 t-125.5 47.5h-55v-342z"/>
<glyph unicode="C" horiz-adv-x="880" d="M82 662q0 181 13.5 295.5t45.5 201.5q40 112 131.5 177t208.5 65q104 0 184.5 -51t118.5 -142q30 -69 41 -174l-233 -63q-24 205 -107 205q-71 0 -101 -119t-30 -398q0 -256 27 -362.5t92 -106.5q52 0 79.5 57.5t39.5 190.5l233 -88q-22 -178 -120 -281.5t-244 -103.5 q-100 0 -181 51t-122 140q-42 93 -59 206.5t-17 299.5z"/>
<glyph unicode="D" horiz-adv-x="987" d="M123 0v1366h303q133 0 221 -37t144 -117q60 -89 87 -210.5t27 -299.5q0 -356 -110.5 -529t-339.5 -173h-332zM389 211h27q96 0 149 65q68 85 68 406q0 181 -17.5 276t-58.5 138q-54 57 -141 57h-27v-942z"/>
<glyph unicode="E" horiz-adv-x="800" d="M123 0v1366h575v-225h-309v-326h309v-221h-309v-369h309v-225h-575z"/>
<glyph unicode="F" horiz-adv-x="800" d="M123 0v1366h588v-225h-322v-326h322v-221h-322v-594h-266z"/>
<glyph unicode="G" horiz-adv-x="989" d="M82 657q0 380 104 566q44 84 132 131t196 47q152 0 244.5 -75t118.5 -218l-242 -88q-10 75 -42 115.5t-79 40.5q-83 0 -120.5 -116.5t-37.5 -373.5q0 -276 33 -386t115 -110q64 0 102 80q19 40 24 98.5t5 227.5h-158v219h430v-139q0 -193 -16 -302t-57 -200 q-44 -97 -134.5 -153t-201.5 -56q-103 0 -192.5 51t-133.5 136q-90 173 -90 505z"/>
<glyph unicode="H" horiz-adv-x="989" d="M123 0v1366h266v-537h211v537h266v-1366h-266v608h-211v-608h-266z"/>
<glyph unicode="I" horiz-adv-x="512" d="M123 0v1366h266v-1366h-266z"/>
<glyph unicode="J" horiz-adv-x="757" d="M41 84l154 203q25 -57 45 -78t49 -21q47 0 67.5 46.5t20.5 156.5v975h266v-965q0 -138 -9.5 -195t-41.5 -108q-40 -61 -114.5 -97t-162.5 -36q-167 0 -274 119z"/>
<glyph unicode="K" horiz-adv-x="983" d="M123 0v1366h266v-584l260 584h281l-281 -618l287 -748h-303l-244 709v-709h-266z"/>
<glyph unicode="L" horiz-adv-x="800" d="M123 0v1366h266v-1141h309v-225h-575z"/>
<glyph unicode="M" horiz-adv-x="1277" d="M123 0v1366h299l219 -864l221 864h293v-1366h-246v834l-166 -670h-211l-163 670v-834h-246z"/>
<glyph unicode="N" horiz-adv-x="1009" d="M123 0v1366h278l240 -831v831h246v-1366h-275l-243 780v-780h-246z"/>
<glyph unicode="O" horiz-adv-x="985" d="M82 684q0 224 30 359.5t101 230.5q94 127 279 127q186 0 280 -127q72 -99 101.5 -233.5t29.5 -370.5q0 -215 -30.5 -349t-100.5 -229q-44 -61 -116 -94t-160 -33q-92 0 -165.5 33t-117.5 94q-72 98 -101.5 231.5t-29.5 360.5zM354 684q0 -190 13 -293.5t43 -147.5t84 -44 q53 0 82 44.5t42 146.5t13 288q0 195 -12.5 298.5t-41.5 148t-85 44.5q-53 0 -82.5 -44t-42.5 -148t-13 -293z"/>
<glyph unicode="P" horiz-adv-x="897" d="M123 0v1366h295q211 0 314.5 -114.5t103.5 -346.5q0 -227 -106 -344t-312 -117h-29v-444h-266zM389 659q95 0 134.5 56t39.5 188q1 133 -39 189q-39 55 -132 55h-3v-488z"/>
<glyph unicode="Q" horiz-adv-x="985" d="M82 682q0 227 29.5 361.5t101.5 230.5q44 61 117 94t164 33q90 0 162 -33t116 -94q71 -95 101 -229.5t30 -354.5q0 -219 -24.5 -345.5t-87.5 -225.5l116 -170l-196 -133l-115 164q-58 -15 -104 -15q-187 0 -281 127q-70 97 -99.5 231t-29.5 359zM354 684 q0 -190 13 -293.5t43 -147.5t84 -44q53 0 82 44.5t42 146.5t13 288q0 195 -12.5 298.5t-41.5 148t-85 44.5q-53 0 -82.5 -44t-42.5 -148t-13 -293z"/>
<glyph unicode="R" horiz-adv-x="989" d="M123 0v1366h332q223 0 331.5 -98t108.5 -299q0 -130 -58.5 -220t-164.5 -122l256 -627h-301l-238 627v-627h-266zM389 780h45q184 0 184 185q0 92 -45 137t-139 45h-45v-367z"/>
<glyph unicode="S" horiz-adv-x="888" d="M41 313l246 60q30 -174 147 -174q51 0 85 37.5t34 93.5q0 51 -32.5 99t-110.5 114l-134 112q-67 56 -133 144q-71 96 -71 231q0 169 102.5 270t274.5 101q150 0 240.5 -79.5t125.5 -242.5l-229 -80q-21 177 -131 177q-51 0 -83 -34.5t-32 -88.5t30 -98.5t115 -116.5 l127 -107q112 -94 159.5 -178.5t47.5 -190.5q0 -179 -108.5 -288t-286.5 -109q-158 0 -257.5 90.5t-125.5 257.5z"/>
<glyph unicode="T" horiz-adv-x="798" d="M55 1141v225h690v-225h-213v-1141h-266v1141h-211z"/>
<glyph unicode="U" horiz-adv-x="985" d="M117 381v985h266v-985q0 -90 16 -123q14 -25 40 -40t55 -15q28 0 53.5 15t38.5 40q16 33 16 123v985h266v-985q0 -109 -20.5 -177.5t-71.5 -123.5q-103 -115 -280 -115q-184 0 -287 115q-51 55 -71.5 123.5t-20.5 177.5z"/>
<glyph unicode="V" d="M47 1366h287l106 -936l138 936h260l-260 -1366h-277z"/>
<glyph unicode="W" horiz-adv-x="1396" d="M47 1366h258l137 -993l136 993h262l116 -993l136 993h258l-242 -1366h-277l-129 1030l-137 -1030h-274z"/>
<glyph unicode="X" horiz-adv-x="985" d="M55 0l273 725l-258 641h292l130 -438l155 438h277l-269 -641l277 -725h-285l-155 514l-164 -514h-273z"/>
<glyph unicode="Y" horiz-adv-x="995" d="M47 1366h291l162 -539l164 539h280l-315 -825v-541h-267v541z"/>
<glyph unicode="Z" horiz-adv-x="798" d="M41 0l385 1147h-358v219h704l-383 -1147h330v-219h-678z"/>
<glyph unicode="[" horiz-adv-x="589" d="M137 -301v1694h393v-185h-153v-1325h153v-184h-393z"/>
<glyph unicode="\" horiz-adv-x="567" d="M41 1393h211l274 -1420h-213z"/>
<glyph unicode="]" horiz-adv-x="589" d="M61 -117h154v1325h-154v185h394v-1694h-394v184z"/>
<glyph unicode="^" horiz-adv-x="1024" d="M39 727l321 645h306l321 -645h-246l-229 459l-227 -459h-246z"/>
<glyph unicode="_" horiz-adv-x="1024" d="M0 -123h1024v-166h-1024v166z"/>
<glyph unicode="`" horiz-adv-x="1024" d="M203 1366h268l135 -254h-157z"/>
<glyph unicode="a" horiz-adv-x="899" d="M82 504q0 129 20 239.5t54 169.5q69 123 176 123q136 0 217 -211v185h242v-1010h-242v184q-37 -112 -86 -161.5t-123 -49.5q-123 0 -190.5 139t-67.5 392zM342 502q0 -297 100 -297q107 0 107 295q0 299 -107 299q-100 0 -100 -297z"/>
<glyph unicode="b" horiz-adv-x="913" d="M123 0v1366h252v-526q46 106 93 151t112 45q60 0 111 -40t83 -113q25 -56 41 -162.5t16 -216.5q0 -252 -67.5 -391.5t-188.5 -139.5q-75 0 -121 46.5t-89 164.5v-184h-242zM365 504q0 -299 106 -299q100 0 100 297t-100 297q-106 0 -106 -295z"/>
<glyph unicode="c" horiz-adv-x="792" d="M82 510q0 280 80.5 403t263.5 123q137 0 208.5 -64.5t102.5 -215.5l-219 -54q-13 67 -33 98t-49 31q-54 0 -75 -74t-21 -261q0 -183 19 -247.5t73 -64.5q35 0 54 30.5t32 109.5l219 -62q-28 -122 -75 -182q-40 -50 -104.5 -78.5t-139.5 -28.5q-83 0 -152.5 38t-109.5 104 q-40 64 -57 156t-17 239z"/>
<glyph unicode="d" horiz-adv-x="913" d="M82 506q0 129 20 239.5t54 169.5q69 123 176 123q65 0 113.5 -46t93.5 -152v526h252v-1366h-242v184q-43 -117 -89.5 -164t-119.5 -47q-123 0 -190.5 139t-67.5 394zM342 502q0 -297 100 -297q107 0 107 295q0 299 -107 299q-100 0 -100 -297z"/>
<glyph unicode="e" horiz-adv-x="892" d="M82 496q0 265 93.5 402.5t273.5 137.5q114 0 197.5 -55t117.5 -152q47 -127 47 -321v-57h-481v-10q0 -135 26 -201q28 -68 88 -68q47 0 75.5 36t45.5 118l226 -56q-34 -146 -122.5 -221.5t-226.5 -75.5q-184 0 -272 128t-88 395zM330 618h237q-3 119 -30 169.5t-88 50.5 t-88.5 -50.5t-30.5 -169.5z"/>
<glyph unicode="f" horiz-adv-x="583" d="M57 809v201h103q0 156 41 237q64 123 245 123q18 0 72 -4v-219h-5q-62 0 -82 -25q-19 -25 -19 -98v-14h106v-201h-106v-809h-252v809h-103z"/>
<glyph unicode="g" horiz-adv-x="897" d="M82 487q0 264 65.5 406.5t186.5 142.5q72 0 122 -49.5t91 -161.5v185h241v-906q0 -143 -12.5 -208.5t-50.5 -120.5q-46 -66 -131.5 -105t-183.5 -39q-209 0 -314 166l193 121q39 -86 117 -86q98 0 120 105q13 59 13 184v80q-38 -110 -88 -160.5t-121 -50.5 q-121 0 -184.5 127t-63.5 370zM342 500q0 -152 24.5 -223.5t77.5 -71.5q107 0 107 295q0 297 -109 297q-100 0 -100 -297z"/>
<glyph unicode="h" horiz-adv-x="905" d="M123 0v1366h252v-492q57 90 107.5 126t121.5 36q92 0 141.5 -62.5t49.5 -180.5v-793h-252v670q0 75 -19 105t-65 30q-44 0 -64 -32t-20 -103v-670h-252z"/>
<glyph unicode="i" horiz-adv-x="471" d="M98 1257q0 55 41 96.5t97 41.5q58 0 98.5 -40.5t40.5 -97.5q0 -59 -40.5 -99t-98.5 -40q-57 0 -97.5 40.5t-40.5 98.5zM111 0v1010h251v-1010h-251z"/>
<glyph unicode="j" horiz-adv-x="471" d="M-39 -131q37 -12 66 -12q47 0 64.5 30.5t17.5 112.5v1010h251v-1043q0 -90 -14.5 -141.5t-52.5 -93.5q-77 -86 -217 -86q-48 0 -115 12v211zM98 1257q0 55 41 96.5t97 41.5q58 0 98.5 -40.5t40.5 -97.5q0 -59 -40.5 -99t-98.5 -40q-57 0 -97.5 40.5t-40.5 98.5z"/>
<glyph unicode="k" horiz-adv-x="901" d="M123 0v1366h252v-821l209 465h264l-225 -478l243 -532h-282l-209 475v-475h-252z"/>
<glyph unicode="l" horiz-adv-x="497" d="M123 0v1366h252v-1366h-252z"/>
<glyph unicode="m" horiz-adv-x="1306" d="M109 0v1010h243v-146q37 91 92.5 131.5t141.5 40.5q79 0 123 -39.5t67 -132.5q44 93 98 132.5t136 39.5q60 0 105.5 -28t64.5 -76q12 -30 15 -58.5t3 -103.5v-770h-252v676q0 71 -19 103t-61 32q-88 0 -88 -135v-676h-252v694q0 119 -77 119q-49 0 -72 -37 q-17 -28 -17 -100v-676h-251z"/>
<glyph unicode="n" horiz-adv-x="890" d="M109 0v1010h241v-146q58 95 112 133.5t128 38.5q92 0 141 -62.5t49 -180.5v-793h-252v670q0 75 -19 105t-65 30q-44 0 -64 -32t-20 -103v-670h-251z"/>
<glyph unicode="o" horiz-adv-x="901" d="M82 506q0 254 96 392t273 138q179 0 273.5 -138.5t94.5 -399.5q0 -249 -96.5 -387t-271.5 -138q-177 0 -273 139t-96 394zM342 502q0 -174 25.5 -249t85.5 -75q55 0 80.5 77t25.5 245q0 177 -25 252t-85 75q-57 0 -82 -76.5t-25 -248.5z"/>
<glyph unicode="p" horiz-adv-x="913" d="M164 -354v1364h242v-185q43 117 89 164t119 47q123 0 190.5 -138.5t67.5 -391.5q0 -129 -19.5 -240.5t-53.5 -169.5q-69 -123 -176 -123q-65 0 -112 45t-95 152v-524h-252zM406 510q0 -299 106 -299q100 0 100 297t-100 297q-106 0 -106 -295z"/>
<glyph unicode="q" horiz-adv-x="913" d="M123 506q0 252 67 391t189 139q75 0 121.5 -47t89.5 -164v185h241v-1364h-251v524q-46 -106 -93.5 -151.5t-111.5 -45.5q-60 0 -111.5 40.5t-83.5 113.5q-25 56 -41 162.5t-16 216.5zM383 508q0 -297 100 -297q107 0 107 295q0 299 -107 299q-100 0 -100 -297z"/>
<glyph unicode="r" horiz-adv-x="686" d="M109 6v1004h251v-207q34 109 106 171q69 60 159 60h6v-278q-49 6 -74 6q-97 0 -147 -58.5t-50 -171.5v-526h-251z"/>
<glyph unicode="s" horiz-adv-x="757" d="M55 168l195 129q30 -125 121 -125q39 0 65.5 24.5t26.5 59.5q0 41 -35.5 77.5t-153.5 115.5q-117 79 -157.5 137.5t-40.5 144.5q0 136 88 220.5t231 84.5q69 0 130.5 -23.5t101.5 -66.5q31 -31 67 -102l-182 -119q-12 55 -41 84t-72 29q-40 0 -65 -21.5t-25 -56.5 q0 -34 18 -58.5t62 -52.5q140 -93 175.5 -119t70.5 -65q70 -73 70 -182q0 -138 -91.5 -224t-240.5 -86q-224 0 -318 195z"/>
<glyph unicode="t" horiz-adv-x="581" d="M55 809v201h97v233h251v-233h103v-201h-103v-498q0 -62 15 -81t63 -19h25v-211q-68 -6 -119 -6q-74 0 -117.5 11.5t-71 43.5t-37 83t-9.5 138v539h-97z"/>
<glyph unicode="u" horiz-adv-x="892" d="M109 356v654h251v-695q0 -129 86 -129t86 129v695h252v-654q0 -186 -87.5 -284.5t-250.5 -98.5t-250 98.5t-87 284.5z"/>
<glyph unicode="v" d="M35 1010h272l137 -750l152 750h258l-279 -1010h-260z"/>
<glyph unicode="w" horiz-adv-x="1286" d="M41 1010h258l113 -674l106 674h252l86 -674l139 674h250l-272 -1010h-221l-115 721l-127 -721h-227z"/>
<glyph unicode="x" horiz-adv-x="880" d="M41 0l250 516l-250 494h278l119 -324l111 324h278l-247 -494l260 -516h-279l-123 342l-133 -342h-264z"/>
<glyph unicode="y" horiz-adv-x="868" d="M41 1010h274l117 -684l135 684h260l-370 -1364h-256l106 379z"/>
<glyph unicode="z" horiz-adv-x="772" d="M41 0v35l334 770h-297v205h639l-342 -805h313v-205h-647z"/>
<glyph unicode="{" horiz-adv-x="595" d="M47 461v182q50 12 72 45.5t22 95.5v377q0 118 54 172q35 37 83 48.5t164 11.5h78v-191q-86 -1 -112.5 -27t-26.5 -108v-322q0 -80 -20.5 -123t-75.5 -75q54 -32 75 -76.5t21 -124.5v-315q0 -85 26.5 -112t112.5 -28v-190h-78q-124 0 -173.5 14t-84.5 58q-43 58 -43 172 v364q0 70 -21.5 105t-72.5 47z"/>
<glyph unicode="|" horiz-adv-x="1024" d="M373 -342v1708h276v-1708h-276z"/>
<glyph unicode="}" horiz-adv-x="595" d="M76 -109q86 1 112.5 27.5t26.5 108.5v321q0 80 20.5 123.5t75.5 75.5q-54 32 -75 76.5t-21 124.5v315q0 85 -26.5 111t-112.5 28v191h78q124 0 173.5 -14t84.5 -58q43 -58 43 -172v-365q0 -70 21.5 -104.5t72.5 -46.5v-182q-50 -12 -72 -46t-22 -96v-377q0 -118 -54 -172 q-35 -36 -83 -47.5t-164 -11.5h-78v190z"/>
<glyph unicode="~" horiz-adv-x="1366" d="M190 1255q58 138 130.5 203.5t166.5 65.5q41 0 91 -15t137 -55q84 -38 113.5 -47.5t60.5 -9.5q43 0 78 30.5t75 102.5l136 -113q-62 -141 -132.5 -205.5t-164.5 -64.5q-41 0 -81 13.5t-204 84.5q-73 31 -117 31t-77 -29t-76 -104z"/>
<glyph unicode="¡" horiz-adv-x="575" d="M158 893q0 57 40.5 97t98.5 40q57 0 97 -40.5t40 -98.5q0 -55 -41 -96t-96 -41q-59 0 -99 40t-40 99zM160 -354l20 975h232l20 -975h-272z"/>
<glyph unicode="¢" d="M119 510q0 262 68.5 384t226.5 142v119h94v-119q115 -10 177.5 -75.5t88.5 -202.5l-217 -56q-14 69 -33.5 100.5t-50.5 31.5q-54 0 -75 -74.5t-21 -263.5q0 -184 19 -248t73 -64q35 0 55 31.5t33 110.5l217 -64q-29 -134 -90.5 -200t-175.5 -85v-127h-94v125 q-102 14 -174 80q-64 60 -92.5 166.5t-28.5 288.5z"/>
<glyph unicode="£" d="M43 0q0 126 48.5 199.5t162.5 119.5q37 45 52.5 82t15.5 82q0 60 -35 115h-195v123h133q-51 76 -68.5 128.5t-17.5 123.5q0 160 98 256t261 96q110 0 194 -48.5t119 -133.5q33 -73 33 -221h-236q0 62 -4 82q-8 46 -36 74t-66 28q-47 0 -78 -34.5t-31 -86.5 q0 -43 23.5 -95t95.5 -169h285v-123h-238q6 -37 6 -57q0 -119 -133 -228q43 -2 82 -14q16 -8 98 -59q53 -35 97 -35q59 0 135 61v-233q-105 -60 -193 -60q-69 0 -166 68q-58 40 -86 54t-53 14q-69 0 -78 -109h-225z"/>
<glyph unicode="¤" horiz-adv-x="1050" d="M96 408l86 86q-51 99 -51 188q0 94 51 190l-86 86l154 154l84 -84q90 49 188 49q100 0 195 -49l84 84l155 -154l-86 -86q50 -90 50 -190q0 -96 -50 -190l86 -84l-155 -154l-84 84q-94 -49 -195 -49q-97 0 -188 47l-84 -82zM322 684q0 -86 58.5 -146.5t143.5 -60.5 q86 0 146.5 60t60.5 145t-60.5 145t-146.5 60q-83 0 -142.5 -60t-59.5 -143z"/>
<glyph unicode="¥" d="M-6 1305h291l161 -476l164 476h283l-203 -488h121v-123h-172l-64 -151h224v-123h-224v-420h-266v420h-221v123h221l-63 151h-170v123h119z"/>
<glyph unicode="¦" horiz-adv-x="1024" d="M373 313h276v-655h-276v655zM373 653v713h276v-713h-276z"/>
<glyph unicode="§" horiz-adv-x="894" d="M61 641q0 123 58.5 192.5t161.5 69.5h18q-113 87 -113 223q0 117 84 192t215 75q93 0 157.5 -37.5t125.5 -128.5l-168 -127q-47 86 -113 86q-29 0 -50 -19t-21 -45q0 -49 69 -118l179 -177q91 -93 130.5 -173t39.5 -175q0 -81 -29.5 -148.5t-79.5 -99.5q-46 -30 -125 -38 q65 -56 93 -107.5t28 -114.5q0 -115 -89.5 -192.5t-221.5 -77.5q-92 0 -166.5 44.5t-120.5 127.5l176 127q46 -94 119 -94q29 0 49 18.5t20 44.5q0 29 -13.5 52t-53.5 65l-219 231q-140 140 -140 324zM289 653q0 -70 96 -178q87 -100 150 -100q28 0 48.5 25.5t20.5 60.5 t-20 71t-76 101q-49 57 -79.5 78.5t-61.5 21.5q-29 0 -53.5 -25.5t-24.5 -54.5z"/>
<glyph unicode="¨" horiz-adv-x="1024" d="M225 1260q0 50 36 85t87 35t87 -36t36 -87t-36 -86.5t-87 -35.5t-87 36.5t-36 88.5zM553 1260q0 50 36 85t87 35t87 -36t36 -87t-36 -86.5t-87 -35.5t-87 36.5t-36 88.5z"/>
<glyph unicode="©" horiz-adv-x="1529" d="M68 690q0 125 55.5 258t148.5 228q95 99 220.5 151.5t265.5 52.5q192 0 353.5 -92.5t255 -253t93.5 -350.5q0 -143 -55 -272t-148.5 -222.5t-223.5 -148.5t-273 -55q-293 0 -488 204q-97 100 -150.5 231.5t-53.5 268.5zM211 690q0 -153 73.5 -282t200 -204t275.5 -75 q152 0 280 73.5t202.5 201.5t74.5 280q0 151 -74.5 278.5t-202.5 201t-280 73.5q-228 0 -387 -162q-74 -77 -118 -182t-44 -203zM522 670q0 201 37 297q26 67 85 106t136 39q202 0 226 -227l-162 -41q-12 121 -60 121q-41 0 -58 -68t-17 -227q0 -147 15 -208t52 -61 q31 0 45.5 33t22.5 115l162 -60q-13 -110 -77.5 -172.5t-162.5 -62.5q-63 0 -116 31.5t-79 85.5q-27 53 -38 120t-11 179z"/>
<glyph unicode="ª" horiz-adv-x="567" d="M47 850q0 150 43.5 235.5t118.5 85.5q41 0 70.5 -22t60.5 -76v82h166v-608h-166v78q-26 -53 -54.5 -74t-72.5 -21q-78 0 -122 84.5t-44 235.5zM223 848q0 -168 58 -168q59 0 59 166q0 170 -59 170q-58 0 -58 -168z"/>
<glyph unicode="«" horiz-adv-x="794" d="M68 539l102 286h215l-94 -286l94 -287h-215zM395 539l103 286h215l-95 -286l95 -287h-215z"/>
<glyph unicode="¬" horiz-adv-x="1024" d="M68 348v242h886v-590h-268v348h-618z"/>
<glyph unicode="­" horiz-adv-x="546" d="M68 389v232h409v-232h-409z"/>
<glyph unicode="®" horiz-adv-x="1529" d="M68 690q0 125 55.5 258t148.5 228q95 99 220.5 151.5t265.5 52.5q192 0 353.5 -92.5t255 -253t93.5 -350.5q0 -143 -55 -272t-148.5 -222.5t-223.5 -148.5t-273 -55q-293 0 -488 204q-97 100 -150.5 231.5t-53.5 268.5zM211 690q0 -153 73.5 -282t200 -204t275.5 -75 q152 0 280 73.5t202.5 201.5t74.5 280q0 151 -74.5 278.5t-202.5 201t-280 73.5q-228 0 -387 -162q-74 -77 -118 -182t-44 -203zM528 272v820h217q285 0 285 -238q0 -78 -36 -132t-103 -77l162 -373h-205l-137 342v-342h-183zM711 748h20q57 0 84 25t27 77q0 100 -111 100 h-20v-202z"/>
<glyph unicode="¯" horiz-adv-x="1024" d="M233 1147v143h560v-143h-560z"/>
<glyph unicode="°" d="M125 1018q0 127 93.5 220t221.5 93q134 0 228 -92.5t94 -224.5t-94 -225t-226 -93t-224.5 94t-92.5 228zM307 1016q0 -57 39 -97t96 -40t97.5 39t40.5 96t-40.5 96t-97.5 39q-55 0 -95 -39.5t-40 -93.5z"/>
<glyph unicode="±" d="M41 0v219h805v-219h-805zM41 569v219h293v281h219v-281h293v-219h-293v-278h-219v278h-293z"/>
<glyph unicode="²" horiz-adv-x="573" d="M18 545l244 416q41 68 55.5 104.5t14.5 69.5q0 28 -13 43.5t-36 15.5q-54 0 -54 -82v-37h-174v37q0 64 14 102.5t48 69.5q72 62 172 62q104 0 166.5 -57t62.5 -154q0 -57 -22 -116t-74 -140l-115 -179h185v-155h-474z"/>
<glyph unicode="³" horiz-adv-x="573" d="M39 776v33h172v-47q0 -49 11.5 -69.5t39.5 -20.5q72 0 72 145q0 113 -62 113q-17 0 -27.5 -5.5t-33.5 -25.5l-82 84l145 193h-204v153h477l-193 -274q160 -9 160 -226q0 -141 -67 -221t-185 -80q-99 0 -160 58q-35 34 -49 75.5t-14 114.5z"/>
<glyph unicode="´" horiz-adv-x="1024" d="M418 1112l135 254h268l-248 -254h-155z"/>
<glyph unicode="µ" horiz-adv-x="892" d="M109 -301l16 508q-16 65 -16 149v654h251v-695q0 -129 86 -129t86 129v695h252v-654q0 -184 -87 -283.5t-248 -99.5q-98 0 -177 39l11 -313h-174z"/>
<glyph unicode="¶" horiz-adv-x="1165" d="M96 1008q0 186 90 282q42 42 96 59t148 17h586v-1626h-234v1401h-135v-1401h-233v885q-157 12 -237.5 108.5t-80.5 274.5z"/>
<glyph unicode="·" horiz-adv-x="485" d="M104 506q0 55 41 96t97 41q58 0 98.5 -40t40.5 -97q0 -58 -40.5 -98.5t-98.5 -40.5q-57 0 -97.5 40.5t-40.5 98.5z"/>
<glyph unicode="¸" horiz-adv-x="1024" d="M389 -362l37 149q6 24 6 82q0 7 -6 22h211q-5 -65 -23 -104l-67 -149h-158z"/>
<glyph unicode="¹" horiz-adv-x="573" d="M115 1059v143q55 20 115 59.5t92 75.5h61v-790h-176v559q-41 -28 -92 -47z"/>
<glyph unicode="º" horiz-adv-x="567" d="M45 850q0 154 62.5 237.5t177.5 83.5q117 0 178 -83.5t61 -241.5q0 -151 -62.5 -234.5t-176.5 -83.5q-115 0 -177.5 84t-62.5 238zM221 848q0 -97 15 -140.5t49 -43.5t48.5 43t14.5 139q0 101 -14.5 144.5t-48.5 43.5t-49 -44t-15 -142z"/>
<glyph unicode="»" horiz-adv-x="794" d="M82 252l94 287l-94 286h215l102 -286l-102 -287h-215zM410 252l94 287l-94 286h215l102 -286l-102 -287h-215z"/>
<glyph unicode="¼" horiz-adv-x="1351" d="M115 1059v143q55 20 115 59.5t92 75.5h61v-790h-176v559q-41 -28 -92 -47zM225 -27l752 1383h149l-751 -1383h-150zM817 129v145l254 508h174v-506h66v-147h-66v-129h-176v129h-252zM946 276h123v256z"/>
<glyph unicode="½" horiz-adv-x="1351" d="M115 1059v143q55 20 115 59.5t92 75.5h61v-790h-176v559q-41 -28 -92 -47zM225 -27l752 1383h149l-751 -1383h-150zM797 0l243 416q40 67 55 105.5t15 70.5q0 28 -13 43.5t-36 15.5q-53 0 -53 -86v-35h-174v35q0 66 13.5 104.5t47.5 69.5q72 62 172 62q104 0 166.5 -57 t62.5 -152q0 -59 -22 -118t-74 -140l-115 -178h185v-156h-473z"/>
<glyph unicode="¾" horiz-adv-x="1351" d="M39 776v33h172v-47q0 -49 11.5 -69.5t39.5 -20.5q72 0 72 145q0 113 -62 113q-17 0 -27.5 -5.5t-33.5 -25.5l-82 84l145 193h-204v153h477l-193 -274q160 -9 160 -226q0 -141 -67 -221t-185 -80q-99 0 -160 58q-35 34 -49 75.5t-14 114.5zM225 -27l752 1383h149 l-751 -1383h-150zM817 129v145l254 508h174v-506h66v-147h-66v-129h-176v129h-252zM946 276h123v256z"/>
<glyph unicode="¿" horiz-adv-x="792" d="M68 -23q0 88 31.5 168t117.5 205q68 100 89.5 147.5t33.5 123.5h240q-8 -103 -43.5 -184t-147.5 -244q-63 -91 -63 -213q0 -136 84 -136q57 0 82.5 53t25.5 173h232v-45q0 -186 -94 -290t-261 -104q-154 0 -240.5 91.5t-86.5 254.5zM319 893q0 57 41 97t99 40 q57 0 97 -40.5t40 -98.5q0 -55 -41 -96t-96 -41q-59 0 -99.5 40.5t-40.5 98.5z"/>
<glyph unicode="À" horiz-adv-x="985" d="M41 0l309 1372h295l299 -1372h-280l-35 211h-279l-41 -211h-268zM182 1694h269l135 -254h-156zM387 430h203l-94 623z"/>
<glyph unicode="Á" horiz-adv-x="985" d="M41 0l309 1372h295l299 -1372h-280l-35 211h-279l-41 -211h-268zM387 430h203l-94 623zM399 1440l136 254h268l-248 -254h-156z"/>
<glyph unicode="Â" horiz-adv-x="985" d="M41 0l309 1372h295l299 -1372h-280l-35 211h-279l-41 -211h-268zM219 1440l150 254h247l152 -254h-180l-94 141l-97 -141h-178zM387 430h203l-94 623z"/>
<glyph unicode="Ã" horiz-adv-x="985" d="M41 0l309 1372h295l299 -1372h-280l-35 211h-279l-41 -211h-268zM225 1446q-1 107 41 167t117 60q55 0 162 -41q44 -12 53 -12q41 0 47 74h115q-1 -116 -40.5 -176t-113.5 -60q-29 0 -47 5.5t-94 37.5q-54 21 -70 21q-22 0 -37 -21t-16 -55h-117zM387 430h203l-94 623z "/>
<glyph unicode="Ä" horiz-adv-x="985" d="M41 0l309 1372h295l299 -1372h-280l-35 211h-279l-41 -211h-268zM207 1585q0 50 36 85.5t87 35.5t87 -36t36 -87t-36 -87t-87 -36t-87 36.5t-36 88.5zM387 430h203l-94 623zM535 1585q0 50 35.5 85.5t86.5 35.5t87 -36t36 -87t-36 -87t-87 -36t-86.5 36.5t-35.5 88.5z "/>
<glyph unicode="Å" horiz-adv-x="985" d="M41 0l309 1372h295l299 -1372h-280l-35 211h-279l-41 -211h-268zM311 1604q0 72 54 125t127 53q75 0 128.5 -52.5t53.5 -127.5q0 -76 -53.5 -129.5t-128.5 -53.5t-128 54t-53 131zM387 430h203l-94 623zM393 1602q0 -41 29.5 -71t69.5 -30q41 0 70.5 30t29.5 71 q0 40 -29.5 69t-70.5 29q-40 0 -69.5 -29t-29.5 -69z"/>
<glyph unicode="Æ" horiz-adv-x="1308" d="M41 0l399 1366h766v-225h-309v-326h309v-221h-309v-369h309v-225h-575v209h-264l-56 -209h-270zM420 418h211v774z"/>
<glyph unicode="Ç" horiz-adv-x="880" d="M82 662q0 181 13.5 295.5t45.5 201.5q40 112 131.5 177t208.5 65q104 0 184.5 -51t118.5 -142q30 -69 41 -174l-233 -63q-24 205 -107 205q-71 0 -101 -119t-30 -398q0 -256 27 -362.5t92 -106.5q52 0 79.5 57.5t39.5 190.5l233 -88q-22 -178 -120 -281.5t-244 -103.5 q-100 0 -181 51t-122 140q-42 93 -59 206.5t-17 299.5zM317 -307l37 147q2 9 6 82q0 8 -6 23h209q-2 -60 -20 -105l-70 -147h-156z"/>
<glyph unicode="È" horiz-adv-x="800" d="M90 1694h268l136 -254h-158zM123 0v1366h573v-225h-307v-326h307v-221h-307v-369h307v-225h-573z"/>
<glyph unicode="É" horiz-adv-x="800" d="M123 0v1366h575v-225h-309v-326h309v-221h-309v-369h309v-225h-575zM307 1440l135 254h267l-246 -254h-156z"/>
<glyph unicode="Ê" horiz-adv-x="800" d="M123 0v1366h575v-225h-309v-326h309v-221h-309v-369h309v-225h-575zM133 1440l150 254h247l152 -254h-180l-94 141l-97 -141h-178z"/>
<glyph unicode="Ë" horiz-adv-x="800" d="M123 0v1366h575v-225h-309v-326h309v-221h-309v-369h309v-225h-575zM123 1585q0 50 36 85.5t87 35.5t87 -36t36 -87t-36 -87t-87 -36t-87 36.5t-36 88.5zM451 1585q0 50 35.5 85.5t86.5 35.5t87 -36t36 -87t-36 -87t-87 -36t-86.5 36.5t-35.5 88.5z"/>
<glyph unicode="Ì" horiz-adv-x="512" d="M-53 1694h268l135 -254h-157zM123 0v1366h266v-1366h-266z"/>
<glyph unicode="Í" horiz-adv-x="512" d="M123 0v1366h266v-1366h-266zM162 1440l135 254h268l-246 -254h-157z"/>
<glyph unicode="Î" horiz-adv-x="512" d="M-18 1440l151 254h246l151 -254h-178l-96 141l-96 -141h-178zM123 0v1366h266v-1366h-266z"/>
<glyph unicode="Ï" horiz-adv-x="512" d="M-4 1585q0 50 36 85.5t87 35.5t87 -36t36 -87t-36 -87t-87 -36t-87 36.5t-36 88.5zM123 0v1366h266v-1366h-266zM268 1585q0 50 36 85.5t87 35.5t87 -36t36 -87t-36 -87t-87 -36t-87 36.5t-36 88.5z"/>
<glyph unicode="Ð" horiz-adv-x="987" d="M14 594v192h109v580h303q135 0 223 -37t142 -117q61 -89 88.5 -210.5t27.5 -299.5q0 -356 -110.5 -529t-339.5 -173h-334v594h-109zM389 211h27q98 0 151 65q37 44 52.5 138.5t15.5 267.5q0 181 -17.5 276t-58.5 138q-54 57 -143 57h-27v-367h131v-192h-131v-383z"/>
<glyph unicode="Ñ" horiz-adv-x="1009" d="M123 0v1366h278l240 -831v831h246v-1366h-275l-243 780v-780h-246zM238 1446q-1 107 40.5 167t116.5 60q55 0 162 -41q43 -12 51 -12q43 0 49 74h115v-19q0 -98 -42.5 -157.5t-113.5 -59.5q-29 0 -46.5 5.5t-92.5 37.5q-46 21 -69 21q-22 0 -37.5 -21.5t-16.5 -54.5h-116 z"/>
<glyph unicode="Ò" horiz-adv-x="985" d="M82 684q0 224 30 359.5t101 230.5q94 127 279 127q186 0 280 -127q72 -99 101.5 -233.5t29.5 -370.5q0 -215 -30.5 -349t-100.5 -229q-44 -61 -116 -94t-160 -33q-92 0 -165.5 33t-117.5 94q-72 98 -101.5 231.5t-29.5 360.5zM182 1694h269l135 -254h-156zM354 684 q0 -190 13 -293.5t43 -147.5t84 -44q53 0 82 44.5t42 146.5t13 288q0 195 -12.5 298.5t-41.5 148t-85 44.5q-53 0 -82.5 -44t-42.5 -148t-13 -293z"/>
<glyph unicode="Ó" horiz-adv-x="985" d="M82 684q0 224 30 359.5t101 230.5q94 127 279 127q186 0 280 -127q72 -99 101.5 -233.5t29.5 -370.5q0 -215 -30.5 -349t-100.5 -229q-44 -61 -116 -94t-160 -33q-92 0 -165.5 33t-117.5 94q-72 98 -101.5 231.5t-29.5 360.5zM354 684q0 -190 13 -293.5t43 -147.5t84 -44 q53 0 82 44.5t42 146.5t13 288q0 195 -12.5 298.5t-41.5 148t-85 44.5q-53 0 -82.5 -44t-42.5 -148t-13 -293zM399 1440l136 254h266l-246 -254h-156z"/>
<glyph unicode="Ô" horiz-adv-x="985" d="M82 684q0 224 30 359.5t101 230.5q94 127 279 127q186 0 280 -127q72 -99 101.5 -233.5t29.5 -370.5q0 -215 -30.5 -349t-100.5 -229q-44 -61 -116 -94t-160 -33q-92 0 -165.5 33t-117.5 94q-72 98 -101.5 231.5t-29.5 360.5zM217 1440l152 254h247l150 -254h-178 l-96 141l-95 -141h-180zM354 684q0 -190 13 -293.5t43 -147.5t84 -44q53 0 82 44.5t42 146.5t13 288q0 195 -12.5 298.5t-41.5 148t-85 44.5q-53 0 -82.5 -44t-42.5 -148t-13 -293z"/>
<glyph unicode="Õ" horiz-adv-x="985" d="M82 684q0 224 30 359.5t101 230.5q94 127 279 127q186 0 280 -127q72 -99 101.5 -233.5t29.5 -370.5q0 -215 -30.5 -349t-100.5 -229q-44 -61 -116 -94t-160 -33q-92 0 -165.5 33t-117.5 94q-72 98 -101.5 231.5t-29.5 360.5zM225 1446q-1 107 41 167t117 60 q55 0 162 -41q44 -12 51 -12q43 0 49 74h115v-19q0 -98 -42.5 -157.5t-113.5 -59.5q-29 0 -46.5 5.5t-92.5 37.5q-47 21 -70 21q-22 0 -37 -21t-16 -55h-117zM354 684q0 -190 13 -293.5t43 -147.5t84 -44q53 0 82 44.5t42 146.5t13 288q0 195 -12.5 298.5t-41.5 148 t-85 44.5q-53 0 -82.5 -44t-42.5 -148t-13 -293z"/>
<glyph unicode="Ö" horiz-adv-x="985" d="M82 684q0 224 30 359.5t101 230.5q94 127 279 127q186 0 280 -127q72 -99 101.5 -233.5t29.5 -370.5q0 -215 -30.5 -349t-100.5 -229q-44 -61 -116 -94t-160 -33q-92 0 -165.5 33t-117.5 94q-72 98 -101.5 231.5t-29.5 360.5zM205 1585q0 50 36 85.5t87 35.5t87 -36 t36 -87t-36 -87t-87 -36t-87 36.5t-36 88.5zM354 684q0 -190 13 -293.5t43 -147.5t84 -44q53 0 82 44.5t42 146.5t13 288q0 195 -12.5 298.5t-41.5 148t-85 44.5q-53 0 -82.5 -44t-42.5 -148t-13 -293zM532 1585q0 50 36 85.5t87 35.5t87 -36t36 -87t-36 -87t-87 -36 t-87 36.5t-36 88.5z"/>
<glyph unicode="×" d="M61 424l228 227l-228 228l154 153l227 -227l228 227l153 -153l-225 -228l225 -227l-153 -154l-228 228l-227 -228z"/>
<glyph unicode="Ø" horiz-adv-x="985" d="M82 -12l88 172q-47 89 -67.5 210t-20.5 314q0 225 29.5 359t99.5 231q94 127 281 127q166 0 260 -105l65 127l86 -45l-88 -172q47 -89 67.5 -210t20.5 -314q0 -225 -29.5 -359.5t-101.5 -230.5q-44 -61 -116 -94t-162 -33q-163 0 -263 103l-63 -125zM354 674 q0 -99 4 -148l252 496q-12 77 -40.5 112t-77.5 35q-54 0 -83.5 -45t-42 -150t-12.5 -300zM373 346q14 -76 43 -111.5t78 -35.5q53 0 82 45t42 148.5t13 293.5q0 52 -4 154z"/>
<glyph unicode="Ù" horiz-adv-x="985" d="M117 381v985h266v-985q0 -90 16 -123q14 -25 40 -40t55 -15q28 0 53.5 15t38.5 40q16 33 16 123v985h266v-985q0 -109 -20.5 -177.5t-71.5 -123.5q-103 -115 -280 -115q-184 0 -287 115q-51 55 -71.5 123.5t-20.5 177.5zM184 1694h267l135 -254h-156z"/>
<glyph unicode="Ú" horiz-adv-x="985" d="M117 381v985h266v-985q0 -90 16 -123q14 -25 40 -40t55 -15q28 0 53.5 15t38.5 40q16 33 16 123v985h266v-985q0 -109 -20.5 -177.5t-71.5 -123.5q-103 -115 -280 -115q-184 0 -287 115q-51 55 -71.5 123.5t-20.5 177.5zM399 1440l136 254h268l-246 -254h-158z"/>
<glyph unicode="Û" horiz-adv-x="985" d="M117 381v985h266v-985q0 -90 16 -123q14 -25 40 -40t55 -15q28 0 53.5 15t38.5 40q16 33 16 123v985h266v-985q0 -109 -20.5 -177.5t-71.5 -123.5q-103 -115 -280 -115q-184 0 -287 115q-51 55 -71.5 123.5t-20.5 177.5zM219 1440l150 254h247l152 -254h-180l-94 141 l-97 -141h-178z"/>
<glyph unicode="Ü" horiz-adv-x="985" d="M117 381v985h266v-985q0 -90 16 -123q14 -25 40 -40t55 -15q28 0 53.5 15t38.5 40q16 33 16 123v985h266v-985q0 -109 -20.5 -177.5t-71.5 -123.5q-103 -115 -280 -115q-184 0 -287 115q-51 55 -71.5 123.5t-20.5 177.5zM207 1585q0 50 36 85.5t87 35.5t87 -36t36 -87 t-36 -87t-87 -36t-87 36.5t-36 88.5zM535 1585q0 50 35.5 85.5t86.5 35.5t87 -36t36 -87t-36 -87t-87 -36t-86.5 36.5t-35.5 88.5z"/>
<glyph unicode="Ý" horiz-adv-x="995" d="M47 1366h291l162 -539l164 539h280l-315 -825v-541h-267v541zM403 1440l136 254h268l-248 -254h-156z"/>
<glyph unicode="Þ" horiz-adv-x="897" d="M123 0v1366h266v-223h29q211 0 314.5 -114.5t103.5 -346.5q0 -227 -106 -344t-312 -117h-29v-221h-266zM389 436q95 0 134.5 56t39.5 188q0 134 -39.5 189.5t-134.5 54.5v-488z"/>
<glyph unicode="ß" horiz-adv-x="901" d="M109 0v1020q0 352 325 352q160 0 252 -85.5t92 -237.5q0 -86 -26 -139t-95 -105q83 -40 118.5 -121t35.5 -231q0 -129 -24 -218t-76 -153q-41 -51 -91.5 -73.5t-132.5 -28.5l-51 237q68 0 91.5 45.5t23.5 177.5q0 124 -24.5 179t-80.5 55q-14 0 -22 -2v198q63 1 88 33.5 t25 112.5q0 73 -25.5 112t-71.5 39q-80 0 -80 -106v-1061h-251z"/>
<glyph unicode="à" horiz-adv-x="899" d="M82 504q0 129 20 239.5t54 169.5q69 123 176 123q136 0 217 -211v185h242v-1010h-242v184q-37 -112 -86 -161.5t-123 -49.5q-123 0 -190.5 139t-67.5 392zM141 1366h267l135 -254h-156zM342 502q0 -297 100 -297q107 0 107 295q0 299 -107 299q-100 0 -100 -297z"/>
<glyph unicode="á" horiz-adv-x="899" d="M82 504q0 129 20 239.5t54 169.5q69 123 176 123q136 0 217 -211v185h242v-1010h-242v184q-37 -112 -86 -161.5t-123 -49.5q-123 0 -190.5 139t-67.5 392zM342 502q0 -297 100 -297q107 0 107 295q0 299 -107 299q-100 0 -100 -297zM356 1112l136 254h268l-248 -254h-156 z"/>
<glyph unicode="â" horiz-adv-x="899" d="M82 504q0 129 20 239.5t54 169.5q69 123 176 123q136 0 217 -211v185h242v-1010h-242v184q-37 -112 -86 -161.5t-123 -49.5q-123 0 -190.5 139t-67.5 392zM176 1112l150 254h247l152 -254h-180l-94 141l-97 -141h-178zM342 502q0 -297 100 -297q107 0 107 295 q0 299 -107 299q-100 0 -100 -297z"/>
<glyph unicode="ã" horiz-adv-x="899" d="M82 504q0 129 20 239.5t54 169.5q69 123 176 123q136 0 217 -211v185h242v-1010h-242v184q-37 -112 -86 -161.5t-123 -49.5q-123 0 -190.5 139t-67.5 392zM182 1118q-1 107 41 167.5t117 60.5q55 0 162 -41q47 -13 53 -13q41 0 47 74h115q-6 -236 -154 -236 q-28 0 -45 5.5t-96 38.5q-44 20 -70 20q-22 0 -37 -21t-16 -55h-117zM342 502q0 -297 100 -297q107 0 107 295q0 299 -107 299q-100 0 -100 -297z"/>
<glyph unicode="ä" horiz-adv-x="899" d="M82 504q0 129 20 239.5t54 169.5q69 123 176 123q136 0 217 -211v185h242v-1010h-242v184q-37 -112 -86 -161.5t-123 -49.5q-123 0 -190.5 139t-67.5 392zM164 1260q0 50 36 85t87 35t87 -36t36 -87t-36 -86.5t-87 -35.5t-87 36.5t-36 88.5zM342 502q0 -297 100 -297 q107 0 107 295q0 299 -107 299q-100 0 -100 -297zM492 1260q0 50 35.5 85t86.5 35t87 -36t36 -87t-36 -86.5t-87 -35.5t-86.5 36.5t-35.5 88.5z"/>
<glyph unicode="å" horiz-adv-x="899" d="M82 504q0 129 20 239.5t54 169.5q69 123 176 123q136 0 217 -211v185h242v-1010h-242v184q-37 -112 -86 -161.5t-123 -49.5q-123 0 -190.5 139t-67.5 392zM268 1276q0 72 54 125t127 53q75 0 128.5 -52.5t53.5 -127.5t-53.5 -127.5t-128.5 -52.5t-128 53.5t-53 128.5z M342 502q0 -297 100 -297q107 0 107 295q0 299 -107 299q-100 0 -100 -297zM350 1276q0 -41 29.5 -70.5t69.5 -29.5q41 0 70.5 28.5t29.5 69.5t-29.5 69.5t-70.5 28.5q-40 0 -69.5 -29t-29.5 -67z"/>
<glyph unicode="æ" horiz-adv-x="1294" d="M82 504q0 129 20 239.5t54 169.5q69 123 176 123q136 0 217 -211v185h199v-142q41 89 89.5 128.5t116.5 39.5q50 0 97 -24t75 -64q49 -67 68.5 -160.5t19.5 -257.5v-79h-448v-103q3 -180 100 -180q46 0 71 33t40 116l219 -55q-28 -110 -57 -164q-31 -57 -87 -91t-120 -34 q-63 0 -106.5 29t-77.5 94v-96h-199v184q-37 -112 -86 -161.5t-123 -49.5q-123 0 -190.5 139t-67.5 392zM342 502q0 -154 24.5 -225.5t77.5 -71.5q51 0 74 57.5t31 202.5v74q-7 146 -30.5 203t-76.5 57q-100 0 -100 -297zM766 600h211q-3 126 -28 182t-79 56t-78.5 -55.5 t-25.5 -182.5z"/>
<glyph unicode="ç" horiz-adv-x="792" d="M82 510q0 280 80.5 403t263.5 123q137 0 208.5 -64.5t102.5 -215.5l-219 -54q-13 67 -33 98t-49 31q-54 0 -75 -74t-21 -261q0 -183 19 -247.5t73 -64.5q35 0 54 30.5t32 109.5l219 -62q-28 -122 -75 -182q-40 -50 -104.5 -78.5t-139.5 -28.5q-83 0 -152.5 38t-109.5 104 q-40 64 -57 156t-17 239zM272 -362l37 149q6 24 6 82q0 7 -6 22h211q-6 -67 -22 -104l-68 -149h-158z"/>
<glyph unicode="è" horiz-adv-x="892" d="M82 496q0 265 93.5 402.5t273.5 137.5q114 0 197.5 -55t117.5 -152q47 -127 47 -321v-57h-481q-1 -144 26.5 -211.5t87.5 -67.5q47 0 75.5 36t45.5 118l226 -56q-34 -146 -122.5 -221.5t-226.5 -75.5q-184 0 -272 128t-88 395zM137 1366h269l135 -254h-158zM330 618h237 q-3 119 -30 169.5t-88 50.5t-88.5 -50.5t-30.5 -169.5z"/>
<glyph unicode="é" horiz-adv-x="892" d="M82 496q0 265 93.5 402.5t273.5 137.5q114 0 197.5 -55t117.5 -152q47 -127 47 -321v-57h-481q-1 -144 26.5 -211.5t87.5 -67.5q47 0 75.5 36t45.5 118l226 -56q-34 -146 -122.5 -221.5t-226.5 -75.5q-184 0 -272 128t-88 395zM330 618h237q-3 119 -30 169.5t-88 50.5 t-88.5 -50.5t-30.5 -169.5zM354 1112l133 254h269l-246 -254h-156z"/>
<glyph unicode="ê" horiz-adv-x="892" d="M82 496q0 265 93.5 402.5t273.5 137.5q114 0 197.5 -55t117.5 -152q47 -127 47 -321v-57h-481q-1 -144 26.5 -211.5t87.5 -67.5q47 0 75.5 36t45.5 118l226 -56q-34 -146 -122.5 -221.5t-226.5 -75.5q-184 0 -272 128t-88 395zM172 1112l152 254h247l150 -254h-178 l-97 141l-94 -141h-180zM330 618h237q-3 119 -30 169.5t-88 50.5t-88.5 -50.5t-30.5 -169.5z"/>
<glyph unicode="ë" horiz-adv-x="892" d="M82 496q0 265 93.5 402.5t273.5 137.5q114 0 197.5 -55t117.5 -152q47 -127 47 -321v-57h-481q-1 -144 26.5 -211.5t87.5 -67.5q47 0 75.5 36t45.5 118l226 -56q-34 -146 -122.5 -221.5t-226.5 -75.5q-184 0 -272 128t-88 395zM160 1260q0 50 36 85t87 35t87 -36t36 -87 t-36 -86.5t-87 -35.5t-87 36.5t-36 88.5zM330 618h237q-3 119 -30 169.5t-88 50.5t-88.5 -50.5t-30.5 -169.5zM487 1260q0 50 36 85t87 35t87 -36t36 -87t-36 -86.5t-87 -35.5t-87 36.5t-36 88.5z"/>
<glyph unicode="ì" horiz-adv-x="497" d="M-59 1366h268l135 -254h-158zM123 0v1010h252v-1010h-252z"/>
<glyph unicode="í" horiz-adv-x="497" d="M123 0v1010h252v-1010h-252zM156 1112l135 254h268l-246 -254h-157z"/>
<glyph unicode="î" horiz-adv-x="497" d="M-25 1112l152 254h246l151 -254h-178l-96 141l-96 -141h-179zM123 0v1010h252v-1010h-252z"/>
<glyph unicode="ï" horiz-adv-x="497" d="M-10 1260q0 50 36 85t87 35t87 -36t36 -87t-36 -86.5t-87 -35.5t-87 36.5t-36 88.5zM123 0v1010h252v-1010h-252zM262 1260q0 50 36 85t87 35t87 -36t36 -87t-36 -86.5t-87 -35.5t-87 36.5t-36 88.5z"/>
<glyph unicode="ð" horiz-adv-x="901" d="M76 1143l123 57l-113 166h293l39 -61l127 61l90 -154l-121 -57l125 -192q98 -154 139 -274.5t41 -256.5q0 -218 -96.5 -338.5t-271.5 -120.5q-177 0 -273 121t-96 344q0 233 104 355q37 45 93 72.5t112 27.5q13 0 21 -2l-111 162l-137 -64zM342 436q0 -137 25.5 -197.5 t83.5 -60.5q57 0 82.5 60t25.5 194q0 140 -25 201t-83 61t-83.5 -60.5t-25.5 -197.5z"/>
<glyph unicode="ñ" horiz-adv-x="890" d="M109 0v1010h241v-146q58 95 112 133.5t128 38.5q92 0 141 -62.5t49 -180.5v-793h-252v670q0 75 -19 105t-65 30q-44 0 -64 -32t-20 -103v-670h-251zM178 1118q-1 107 41 167.5t117 60.5q55 0 162 -41q47 -13 51 -13q43 0 49 74h115v-18q0 -98 -43 -158t-113 -60 q-28 0 -45 5.5t-94 38.5q-44 20 -70 20q-22 0 -37 -21t-18 -55h-115z"/>
<glyph unicode="ò" horiz-adv-x="901" d="M82 506q0 254 96 392t273 138q179 0 273.5 -138.5t94.5 -399.5q0 -249 -96.5 -387t-271.5 -138q-177 0 -273 139t-96 394zM141 1366h269l135 -254h-158zM342 502q0 -174 25.5 -249t85.5 -75q55 0 80.5 77t25.5 245q0 177 -25 252t-85 75q-57 0 -82 -76.5t-25 -248.5z"/>
<glyph unicode="ó" horiz-adv-x="901" d="M82 506q0 254 96 392t273 138q179 0 273.5 -138.5t94.5 -399.5q0 -249 -96.5 -387t-271.5 -138q-177 0 -273 139t-96 394zM342 502q0 -174 25.5 -249t85.5 -75q55 0 80.5 77t25.5 245q0 177 -25 252t-85 75q-57 0 -82 -76.5t-25 -248.5zM358 1112l134 254h268l-246 -254 h-156z"/>
<glyph unicode="ô" horiz-adv-x="901" d="M82 506q0 254 96 392t273 138q179 0 273.5 -138.5t94.5 -399.5q0 -249 -96.5 -387t-271.5 -138q-177 0 -273 139t-96 394zM176 1112l152 254h245l152 -254h-178l-96 141l-97 -141h-178zM342 502q0 -174 25.5 -249t85.5 -75q55 0 80.5 77t25.5 245q0 177 -25 252t-85 75 q-57 0 -82 -76.5t-25 -248.5z"/>
<glyph unicode="õ" horiz-adv-x="901" d="M82 506q0 254 96 392t273 138q179 0 273.5 -138.5t94.5 -399.5q0 -249 -96.5 -387t-271.5 -138q-177 0 -273 139t-96 394zM182 1118q0 107 42.5 167.5t117.5 60.5q55 0 162 -41q44 -13 51 -13q43 0 49 74h115v-18q0 -98 -43 -158t-113 -60q-28 0 -45 5.5t-96 38.5 q-41 20 -68 20q-23 0 -37.5 -21t-17.5 -55h-117zM342 502q0 -174 25.5 -249t85.5 -75q55 0 80.5 77t25.5 245q0 177 -25 252t-85 75q-57 0 -82 -76.5t-25 -248.5z"/>
<glyph unicode="ö" horiz-adv-x="901" d="M82 506q0 254 96 392t273 138q179 0 273.5 -138.5t94.5 -399.5q0 -249 -96.5 -387t-271.5 -138q-177 0 -273 139t-96 394zM164 1260q0 50 36 85t87 35t87 -36t36 -87t-36 -86.5t-87 -35.5t-87 36.5t-36 88.5zM342 502q0 -174 25.5 -249t85.5 -75q55 0 80.5 77t25.5 245 q0 177 -25 252t-85 75q-57 0 -82 -76.5t-25 -248.5zM492 1260q0 50 35.5 85t86.5 35t87 -36t36 -87t-36 -86.5t-87 -35.5t-86.5 36.5t-35.5 88.5z"/>
<glyph unicode="÷" d="M41 543v219h805v-219h-805zM305 311q0 56 41 97t96 41q58 0 99 -40.5t41 -97.5q0 -58 -40.5 -98.5t-99.5 -40.5q-57 0 -97 40.5t-40 98.5zM305 995q0 56 41 97t96 41q58 0 99 -40.5t41 -97.5q0 -58 -40.5 -98.5t-99.5 -40.5q-57 0 -97 40.5t-40 98.5z"/>
<glyph unicode="ø" horiz-adv-x="901" d="M55 -8l101 151q-74 145 -74 363q0 253 96 391.5t271 138.5q139 0 239 -92l82 125l76 -51l-103 -152q76 -143 76 -362q0 -254 -95.5 -392.5t-272.5 -138.5q-137 0 -238 93l-82 -125zM342 424l201 301q-23 102 -94 102q-56 0 -81.5 -76.5t-25.5 -246.5v-80zM358 285 q20 -107 95 -107q56 0 81 77.5t25 250.5q0 43 -2 80z"/>
<glyph unicode="ù" horiz-adv-x="892" d="M109 356v654h251v-695q0 -129 86 -129t86 129v695h252v-654q0 -186 -87.5 -284.5t-250.5 -98.5t-250 98.5t-87 284.5zM137 1366h269l133 -254h-156z"/>
<glyph unicode="ú" horiz-adv-x="892" d="M109 356v654h251v-695q0 -129 86 -129t86 129v695h252v-654q0 -186 -87.5 -284.5t-250.5 -98.5t-250 98.5t-87 284.5zM352 1112l135 254h269l-246 -254h-158z"/>
<glyph unicode="û" horiz-adv-x="892" d="M109 356v654h251v-695q0 -129 86 -129t86 129v695h252v-654q0 -186 -87.5 -284.5t-250.5 -98.5t-250 98.5t-87 284.5zM172 1112l152 254h245l152 -254h-178l-97 141l-96 -141h-178z"/>
<glyph unicode="ü" horiz-adv-x="892" d="M109 356v654h251v-695q0 -129 86 -129t86 129v695h252v-654q0 -186 -87.5 -284.5t-250.5 -98.5t-250 98.5t-87 284.5zM160 1260q0 50 36 85t87 35t87 -36t36 -87t-36 -86.5t-87 -35.5t-87 36.5t-36 88.5zM487 1260q0 50 36 85t87 35t87 -36t36 -87t-36 -86.5t-87 -35.5 t-87 36.5t-36 88.5z"/>
<glyph unicode="ý" horiz-adv-x="868" d="M41 1010h274l117 -684l135 684h260l-370 -1364h-256l106 379zM340 1112l135 254h268l-245 -254h-158z"/>
<glyph unicode="þ" horiz-adv-x="913" d="M164 -354v1720h242v-541q43 117 89 164t119 47q123 0 190.5 -138.5t67.5 -391.5q0 -129 -19.5 -240.5t-53.5 -169.5q-69 -123 -176 -123q-65 0 -112 45t-95 152v-524h-252zM406 510q0 -299 106 -299q100 0 100 297t-100 297q-106 0 -106 -295z"/>
<glyph unicode="ÿ" horiz-adv-x="868" d="M41 1010h274l117 -684l135 684h260l-370 -1364h-256l106 379zM147 1260q0 50 36 85t87 35t87 -36t36 -87t-36 -86.5t-87 -35.5t-87 36.5t-36 88.5zM475 1260q0 50 36 85t87 35t87 -36t36 -87t-36 -86.5t-87 -35.5t-87 36.5t-36 88.5z"/>
<glyph unicode="Œ" horiz-adv-x="1316" d="M82 670q0 372 103 547.5t321 175.5q41 0 141 -15q64 -12 154 -12h413v-225h-309v-326h309v-221h-309v-369h309v-225h-460q-70 0 -176 -18q-58 -9 -111 -9q-94 0 -169.5 48t-125.5 137q-41 77 -65.5 214t-24.5 298zM354 680q0 -258 37.5 -374t122.5 -116q125 0 125 267 v444q0 268 -127 268q-83 0 -120.5 -116t-37.5 -373z"/>
<glyph unicode="œ" horiz-adv-x="1294" d="M82 506q0 252 88.5 391t249.5 139q148 0 231 -118q47 64 101 91t133 27q104 0 181.5 -55t109.5 -152q43 -128 43 -319q0 -32 -2 -59h-447q0 -145 26 -212t83 -67q45 0 71 35.5t41 118.5l207 -56q-32 -145 -115 -221t-209 -76q-149 0 -231 109q-86 -109 -223 -109 q-161 0 -249.5 139.5t-88.5 393.5zM334 502q0 -172 24 -248t78 -76t78.5 76.5t24.5 245.5q0 177 -23.5 252t-79.5 75q-54 0 -78 -76t-24 -249zM770 600h211q-2 126 -27 182t-80 56q-52 0 -76.5 -56t-27.5 -182z"/>
<glyph unicode="Ÿ" horiz-adv-x="995" d="M47 1366h291l162 -539l164 539h280l-315 -825v-541h-267v541zM209 1585q0 50 36 85.5t87 35.5t87 -36t36 -87t-36 -87t-87 -36t-87 36.5t-36 88.5zM537 1585q0 50 35.5 85.5t86.5 35.5t87 -36t36 -87t-36 -87t-87 -36t-86.5 36.5t-35.5 88.5z"/>
<glyph unicode="ˆ" horiz-adv-x="1024" d="M238 1112l151 254h246l151 -254h-178l-96 141l-96 -141h-178z"/>
<glyph unicode="˜" horiz-adv-x="1024" d="M244 1118q0 108 41 168t116 60q55 0 162 -41q47 -13 53 -13q42 0 48 74h114q-3 -107 -26 -152q-44 -84 -127 -84q-29 0 -46.5 5.5t-95.5 38.5q-44 20 -69 20q-22 0 -37.5 -21.5t-16.5 -54.5h-116z"/>
<glyph unicode=" " horiz-adv-x="891"/>
<glyph unicode=" " horiz-adv-x="1782"/>
<glyph unicode=" " horiz-adv-x="891"/>
<glyph unicode=" " horiz-adv-x="1782"/>
<glyph unicode=" " horiz-adv-x="594"/>
<glyph unicode=" " horiz-adv-x="445"/>
<glyph unicode=" " horiz-adv-x="297"/>
<glyph unicode=" " horiz-adv-x="297"/>
<glyph unicode=" " horiz-adv-x="222"/>
<glyph unicode=" " horiz-adv-x="356"/>
<glyph unicode=" " horiz-adv-x="99"/>
<glyph unicode="‐" horiz-adv-x="546" d="M68 389v232h409v-232h-409z"/>
<glyph unicode="‑" horiz-adv-x="546" d="M68 389v232h409v-232h-409z"/>
<glyph unicode="‒" horiz-adv-x="546" d="M68 389v232h409v-232h-409z"/>
<glyph unicode="–" horiz-adv-x="804" d="M68 403v205h669v-205h-669z"/>
<glyph unicode="—" horiz-adv-x="1214" d="M68 403v205h1079v-205h-1079z"/>
<glyph unicode="‘" horiz-adv-x="485" d="M68 981l139 385h207l-107 -385h-239z"/>
<glyph unicode="’" horiz-adv-x="485" d="M68 981l106 385h240l-140 -385h-206z"/>
<glyph unicode="‚" horiz-adv-x="485" d="M68 -164l106 385h240l-140 -385h-206z"/>
<glyph unicode="“" horiz-adv-x="813" d="M68 981l139 385h207l-107 -385h-239zM395 981l140 385h206l-106 -385h-240z"/>
<glyph unicode="”" horiz-adv-x="813" d="M68 981l106 385h240l-140 -385h-206zM395 981l107 385h239l-139 -385h-207z"/>
<glyph unicode="„" horiz-adv-x="813" d="M68 -164l106 385h240l-140 -385h-206zM395 -164l107 385h239l-139 -385h-207z"/>
<glyph unicode="•" horiz-adv-x="1366" d="M401 692q0 120 83.5 202.5t203.5 82.5q115 0 198 -83.5t83 -199.5q0 -118 -83 -201t-200 -83q-118 0 -201.5 82.5t-83.5 199.5z"/>
<glyph unicode="…" horiz-adv-x="1654" d="M137 119q0 55 40.5 96t96.5 41q58 0 99 -40t41 -97q0 -58 -40.5 -98.5t-99.5 -40.5q-57 0 -97 40.5t-40 98.5zM688 119q0 55 41 96t96 41q58 0 99 -40t41 -97q0 -58 -40.5 -98.5t-99.5 -40.5q-57 0 -97 40.5t-40 98.5zM1241 119q0 55 40.5 96t96.5 41q58 0 99 -40t41 -97 q0 -58 -40.5 -98.5t-99.5 -40.5q-57 0 -97 40.5t-40 98.5z"/>
<glyph unicode=" " horiz-adv-x="356"/>
<glyph unicode="‹" horiz-adv-x="466" d="M68 539l102 286h215l-94 -286l94 -287h-215z"/>
<glyph unicode="›" horiz-adv-x="466" d="M82 252l94 287l-94 286h215l102 -286l-102 -287h-215z"/>
<glyph unicode=" " horiz-adv-x="445"/>
<glyph unicode="€" horiz-adv-x="1032" d="M70 547l67 266h86q5 153 29 256q37 161 131 246.5t235 85.5q105 0 186 -51.5t118 -141.5q33 -75 43 -174l-236 -63q-24 205 -106 205q-61 0 -90 -83t-37 -280h252l-68 -266h-186q7 -149 20 -228q22 -129 100 -129q50 0 77.5 58.5t37.5 189.5l236 -90 q-23 -177 -121.5 -280t-245.5 -103q-278 0 -352 346q-19 93 -25 236h-151z"/>
<glyph unicode="™" horiz-adv-x="1308" d="M27 1219v147h448v-147h-133v-672h-182v672h-133zM573 547v819h201l133 -492l135 492h195v-819h-168v446l-92 -350h-143l-93 348v-444h-168z"/>
<glyph unicode="" horiz-adv-x="1013" d="M0 0v1014h1014v-1014h-1014z"/>
</font>
</defs>
</svg>
